<?xml version="1.0" encoding="utf-8"?>
<!-- Generator: Adobe Illustrator 19.2.1, SVG Export Plug-In . SVG Version: 6.00 Build 0)  -->
<svg version="1.1" id="Layer_1" xmlns="http://www.w3.org/2000/svg" xmlns:xlink="http://www.w3.org/1999/xlink" x="0px" y="0px"
	 viewBox="0 0 150 150" style="enable-background:new 0 0 150 150;" xml:space="preserve">
<style type="text/css">
	.st0{fill:#5BB0A7;}
	.st1{fill:#FFFFFF;}
</style>
<circle class="st0" cx="75" cy="75" r="75"/>
<g>
	<path class="st1" d="M60.5,90.1c0,2.7-0.5,5-1.6,7c-1.1,2-2.5,3.7-4.4,5.1c-1.9,1.4-4,2.4-6.5,3.1c-2.5,0.7-5.1,1.1-7.9,1.1H9.7
		V43.3h33.8c2.2,0,4.2,0.5,6,1.4c1.8,0.9,3.3,2.2,4.5,3.7c1.2,1.5,2.2,3.2,2.9,5.2c0.7,1.9,1,3.9,1,5.8c0,3.1-0.8,6-2.3,8.7
		c-1.5,2.7-3.8,4.7-6.7,6c3.6,1.1,6.5,3,8.6,5.7C59.4,82.6,60.5,86,60.5,90.1z M22,53.8v15.9h16.3c2.1,0,3.8-0.7,5.3-2.1
		c1.5-1.4,2.2-3.4,2.2-5.9c0-2.4-0.7-4.4-2-5.8c-1.3-1.4-3-2.1-4.9-2.1H22z M48.2,87.8c0-1.1-0.2-2.2-0.6-3.2
		c-0.4-1-0.9-1.9-1.6-2.7c-0.7-0.8-1.4-1.4-2.3-1.8c-0.9-0.4-1.9-0.7-2.9-0.7H22V96h18.2c1.1,0,2.2-0.2,3.2-0.6c1-0.4,1.8-1,2.5-1.7
		c0.7-0.7,1.3-1.6,1.7-2.6C47.9,90,48.2,89,48.2,87.8z"/>
</g>
<g>
	<path class="st1" d="M89.5,106.5V43.6h27.8c2.9,0,5.6,0.6,8,1.8c2.4,1.2,4.6,2.8,6.3,4.8c1.8,2,3.2,4.2,4.2,6.7
		c1,2.5,1.5,5,1.5,7.6c0,4.1-1,7.8-3.1,11.1c-2,3.3-4.8,5.7-8.3,7.2l14.3,23.6h-13.7l-12.8-21.1h-12v21.1H89.5z M101.7,74.7H117
		c1.1,0,2.2-0.3,3.1-0.8c1-0.5,1.8-1.3,2.5-2.2c0.7-0.9,1.3-2,1.7-3.2c0.4-1.2,0.6-2.6,0.6-4c0-1.5-0.2-2.8-0.7-4.1
		c-0.5-1.2-1.1-2.3-1.9-3.2c-0.8-0.9-1.7-1.6-2.7-2.1c-1-0.5-2.1-0.8-3.1-0.8h-14.8V74.7z"/>
</g>
<g>
	<path class="st1" d="M71.9,103.2h11v3.3H65.8v-2.6L77,95H65.8v-3.3h17.2v2.7L71.9,103.2z"/>
	<path class="st1" d="M82.9,88H65.8v-6.2c0-1.4,0.2-2.6,0.7-3.7c0.5-1.1,1.1-1.9,1.8-2.7c0.8-0.7,1.7-1.2,2.7-1.6
		c1-0.4,2.2-0.5,3.3-0.5c1.3,0,2.5,0.2,3.5,0.6c1.1,0.4,2,1,2.7,1.7c0.8,0.7,1.3,1.6,1.7,2.7c0.4,1,0.6,2.2,0.6,3.5V88z M74.3,76.7
		c-0.8,0-1.6,0.1-2.3,0.3c-0.7,0.2-1.3,0.6-1.8,1c-0.5,0.4-0.9,1-1.2,1.6c-0.3,0.6-0.4,1.4-0.4,2.2v2.9H80v-2.9
		c0-0.8-0.1-1.6-0.4-2.2c-0.3-0.6-0.7-1.2-1.2-1.6c-0.5-0.4-1.1-0.8-1.8-1C75.9,76.8,75.1,76.7,74.3,76.7z"/>
	<path class="st1" d="M70.3,60.5c-0.1,0.1-0.3,0.3-0.5,0.6c-0.2,0.3-0.4,0.7-0.6,1.1c-0.2,0.4-0.3,0.9-0.5,1.4
		c-0.1,0.5-0.2,1-0.2,1.5c0,0.9,0.2,1.6,0.5,2.1c0.3,0.5,0.8,0.7,1.4,0.7c0.4,0,0.7-0.1,0.9-0.3c0.2-0.2,0.4-0.4,0.6-0.7
		c0.2-0.3,0.3-0.7,0.5-1.2c0.1-0.5,0.3-1.1,0.5-1.7c0.2-0.8,0.5-1.6,0.7-2.3c0.3-0.7,0.6-1.3,1-1.7c0.4-0.5,0.9-0.8,1.4-1.1
		c0.5-0.3,1.2-0.4,2-0.4c0.9,0,1.7,0.2,2.4,0.5c0.7,0.3,1.2,0.8,1.6,1.4c0.4,0.6,0.7,1.3,0.9,2c0.2,0.8,0.3,1.6,0.3,2.4
		c0,1.3-0.2,2.6-0.6,3.8c-0.4,1.3-0.9,2.4-1.6,3.4L78,70.5c0.1-0.1,0.3-0.4,0.6-0.8c0.2-0.4,0.5-0.8,0.7-1.3
		c0.2-0.5,0.4-1.1,0.6-1.7c0.2-0.6,0.2-1.3,0.2-1.9c0-1.8-0.6-2.8-1.8-2.8c-0.4,0-0.7,0.1-0.9,0.3c-0.3,0.2-0.5,0.5-0.7,0.9
		c-0.2,0.4-0.4,0.9-0.5,1.4c-0.2,0.5-0.3,1.2-0.5,1.8c-0.2,0.8-0.5,1.5-0.7,2.1c-0.3,0.6-0.6,1.1-0.9,1.5c-0.4,0.4-0.8,0.7-1.3,0.9
		c-0.5,0.2-1,0.3-1.7,0.3c-0.9,0-1.6-0.2-2.3-0.5C68,70.5,67.5,70,67,69.4c-0.5-0.6-0.8-1.2-1-2c-0.2-0.8-0.4-1.6-0.4-2.4
		c0-1.2,0.2-2.3,0.6-3.3c0.4-1,0.8-1.9,1.3-2.7L70.3,60.5z"/>
	<path class="st1" d="M68.7,43.1v5.5h14.3v3.3H68.7v5.5h-2.9V43.1H68.7z"/>
</g>
</svg>
