<?xml version="1.0" encoding="utf-8"?>
<!-- Generator: Adobe Illustrator 19.2.1, SVG Export Plug-In . SVG Version: 6.00 Build 0)  -->
<svg version="1.1" id="Layer_1" xmlns="http://www.w3.org/2000/svg" xmlns:xlink="http://www.w3.org/1999/xlink" x="0px" y="0px"
	 viewBox="0 0 300 300" style="enable-background:new 0 0 300 300;" xml:space="preserve">
<style type="text/css">
	.st0{fill:#5BB0A7;}
	.st1{fill:#FFFFFF;}
</style>
<circle class="st0" cx="150" cy="150" r="150"/>
<g>
	<path class="st1" d="M121,180.3c0,5.3-1.1,10-3.2,14c-2.1,4-5.1,7.4-8.8,10.1c-3.7,2.7-8.1,4.8-13,6.2c-4.9,1.4-10.2,2.1-15.7,2.1
		H19.4V86.7h67.5c4.4,0,8.3,0.9,11.9,2.8c3.6,1.9,6.6,4.4,9.1,7.4c2.5,3,4.4,6.5,5.8,10.3c1.4,3.8,2,7.7,2,11.6
		c0,6.2-1.5,11.9-4.6,17.3c-3.1,5.4-7.6,9.4-13.5,12c7.2,2.1,12.9,6,17.1,11.5C118.9,165.1,121,172,121,180.3z M43.9,107.6v31.8
		h32.7c4.1,0,7.7-1.4,10.6-4.3c2.9-2.8,4.4-6.7,4.4-11.7c0-4.9-1.3-8.7-4-11.5c-2.7-2.8-6-4.3-9.9-4.3H43.9z M96.3,175.7
		c0-2.2-0.4-4.4-1.2-6.5c-0.8-2.1-1.8-3.9-3.1-5.4c-1.3-1.5-2.8-2.8-4.6-3.6c-1.8-0.9-3.7-1.3-5.9-1.3H43.9V192h36.4
		c2.2,0,4.4-0.4,6.3-1.2c2-0.8,3.6-2,5.1-3.5c1.4-1.5,2.5-3.2,3.4-5.2C95.9,180.1,96.3,177.9,96.3,175.7z"/>
</g>
<g>
	<path class="st1" d="M179,212.9V87.2h55.6c5.8,0,11.1,1.2,16,3.6c4.9,2.4,9.1,5.6,12.7,9.6c3.5,4,6.3,8.4,8.3,13.5
		c2,5,3,10.1,3,15.1c0,8.1-2,15.6-6.1,22.2c-4.1,6.7-9.6,11.5-16.6,14.4l28.7,47.3h-27.4l-25.7-42.1h-24.1v42.1H179z M203.4,149.4
		H234c2.2,0,4.3-0.5,6.3-1.6c1.9-1.1,3.6-2.5,5-4.3c1.4-1.8,2.5-4,3.4-6.5c0.8-2.5,1.2-5.1,1.2-8c0-2.9-0.5-5.7-1.4-8.1
		c-0.9-2.5-2.2-4.6-3.8-6.5c-1.6-1.8-3.4-3.2-5.5-4.2c-2.1-1-4.2-1.5-6.3-1.5h-29.6V149.4z"/>
</g>
<g>
	<path class="st1" d="M143.9,206.4h22v6.7h-34.4v-5.2l22.6-17.9h-22.5v-6.7h34.3v5.4L143.9,206.4z"/>
	<path class="st1" d="M165.9,176.1h-34.4v-12.5c0-2.8,0.5-5.3,1.4-7.4c0.9-2.1,2.1-3.9,3.7-5.3c1.5-1.4,3.4-2.5,5.4-3.2
		c2.1-0.7,4.3-1.1,6.7-1.1c2.6,0,5,0.4,7.1,1.2c2.1,0.8,3.9,1.9,5.4,3.4c1.5,1.5,2.7,3.3,3.5,5.4c0.8,2.1,1.2,4.4,1.2,7V176.1z
		 M148.7,153.4c-1.6,0-3.2,0.2-4.6,0.7c-1.4,0.5-2.6,1.1-3.6,2c-1,0.9-1.8,1.9-2.3,3.2c-0.5,1.3-0.8,2.7-0.8,4.3v5.8H160v-5.8
		c0-1.6-0.3-3.1-0.9-4.4c-0.6-1.3-1.4-2.3-2.4-3.2c-1-0.9-2.2-1.5-3.6-2C151.8,153.6,150.3,153.4,148.7,153.4z"/>
	<path class="st1" d="M140.5,120.9c-0.2,0.2-0.5,0.6-0.9,1.2c-0.4,0.6-0.8,1.3-1.1,2.2c-0.4,0.9-0.7,1.8-0.9,2.8
		c-0.3,1-0.4,2-0.4,3.1c0,1.8,0.3,3.2,1,4.1c0.7,0.9,1.6,1.4,2.9,1.4c0.7,0,1.3-0.2,1.8-0.5c0.5-0.3,0.9-0.8,1.2-1.5
		c0.4-0.6,0.7-1.5,1-2.4c0.3-1,0.6-2.1,0.9-3.4c0.5-1.7,0.9-3.2,1.5-4.6c0.5-1.4,1.2-2.5,1.9-3.5c0.8-1,1.7-1.7,2.8-2.2
		c1.1-0.5,2.4-0.8,4-0.8c1.8,0,3.4,0.3,4.7,1c1.3,0.7,2.4,1.6,3.2,2.8c0.8,1.2,1.4,2.5,1.8,4.1c0.4,1.5,0.6,3.1,0.6,4.8
		c0,2.6-0.4,5.1-1.2,7.7c-0.8,2.5-1.9,4.8-3.3,6.8l-5.8-3c0.3-0.3,0.7-0.8,1.1-1.6c0.5-0.8,0.9-1.7,1.4-2.7c0.5-1,0.9-2.2,1.2-3.4
		c0.3-1.3,0.5-2.5,0.5-3.9c0-3.7-1.2-5.5-3.5-5.5c-0.7,0-1.4,0.2-1.9,0.6c-0.5,0.4-1,1-1.4,1.8c-0.4,0.8-0.7,1.7-1.1,2.8
		c-0.3,1.1-0.7,2.3-1.1,3.7c-0.5,1.6-0.9,3.1-1.5,4.3c-0.5,1.2-1.2,2.2-1.9,3c-0.7,0.8-1.6,1.4-2.5,1.8c-1,0.4-2.1,0.6-3.4,0.6
		c-1.7,0-3.3-0.3-4.6-1c-1.4-0.6-2.5-1.5-3.4-2.7c-0.9-1.1-1.6-2.5-2.1-4c-0.5-1.5-0.7-3.1-0.7-4.9c0-2.4,0.4-4.6,1.1-6.7
		c0.8-2,1.7-3.8,2.7-5.3L140.5,120.9z"/>
	<path class="st1" d="M137.4,86.3v11h28.5v6.6h-28.5v11h-5.9V86.3H137.4z"/>
</g>
</svg>
